# xmcd
# Track frame offsets:
# 150
# 15110
# 30107
# 52590
# 68307
# 81830
# 95550
# 106752
# 126250
# 143097
# 159145
#
# Disc length: 2414 seconds
# Revision: 0
# Processed by: cddbd v1.4PL0 Copyright (c) Steve Scherf et al.
# Submitted via: VisiTrax 2.9.5.180 - For more info visit www.synapsa.com
#
DISCID=68096c0b
DTITLE=Zachery Hunter - Zachary Hunter
DYEAR=1995
DGENRE=
TTITLE0=A cowboy's song
TTITLE1=Hey little girl
TTITLE2=The hunt
TTITLE3=Stranded
TTITLE4=Back where we oughta be
TTITLE5=See you later, I'm gone
TTITLE6=The union song
TTITLE7=His daddy's eyes
TTITLE8=Never ending song of love
TTITLE9=The door
TTITLE10=Colorado craving
EXTD=
EXTT0=
EXTT1=
EXTT2=
EXTT3=
EXTT4=
EXTT5=
EXTT6=
EXTT7=
EXTT8=
EXTT9=
EXTT10=
PLAYORDER=
